<svg width="100" height="100" viewBox="0 0 100 100" fill="none" xmlns="http://www.w3.org/2000/svg">
    <!-- Croissant Shape -->
    <path d="M 30 50 Q 20 40 25 30 Q 30 20 40 25 Q 50 30 60 25 Q 70 20 75 30 Q 80 40 70 50 Q 60 60 50 55 Q 40 60 30 50 Z" fill="#D4A373"/>
    <path d="M 35 50 Q 25 40 30 30 Q 35 20 45 25 Q 55 30 65 25 Q 70 20 70 30 Q 70 40 65 50 Q 55 60 50 55 Q 45 60 35 50 Z" fill="#B08968" opacity="0.7"/>
    
    <!-- Layers/Texture -->
    <path d="M 40 45 Q 35 40 40 35" stroke="#3A3A3A" stroke-width="1.5" fill="none" opacity="0.2"/>
    <path d="M 50 45 Q 45 40 50 35" stroke="#3A3A3A" stroke-width="1.5" fill="none" opacity="0.2"/>
    <path d="M 60 45 Q 55 40 60 35" stroke="#3A3A3A" stroke-width="1.5" fill="none" opacity="0.2"/>
    
    <!-- Decorative Seeds -->
    <circle cx="45" cy="40" r="2" fill="#3A3A3A" opacity="0.3"/>
    <circle cx="55" cy="45" r="1.5" fill="#3A3A3A" opacity="0.3"/>
    <circle cx="50" cy="50" r="1.5" fill="#3A3A3A" opacity="0.3"/>
</svg>