<svg width="100" height="100" viewBox="0 0 100 100" fill="none" xmlns="http://www.w3.org/2000/svg">
    <ellipse cx="50" cy="75" rx="30" ry="8" fill="#B08968"/>
    <path d="M 20 75 Q 20 65 25 55 L 25 40 Q 25 30 35 30 L 65 30 Q 75 30 75 40 L 75 55 Q 80 65 80 75" fill="#D4A373"/>
    <path d="M 30 50 Q 35 45 40 50 Q 45 45 50 50 Q 55 45 60 50 Q 65 45 70 50" stroke="#A3B18A" stroke-width="2" fill="none" opacity="0.6"/>
    <path d="M 35 40 Q 40 35 45 40" stroke="#A3B18A" stroke-width="1.5" fill="none" opacity="0.5"/>
    <path d="M 50 40 Q 55 35 60 40" stroke="#A3B18A" stroke-width="1.5" fill="none" opacity="0.5"/>
    <circle cx="50" cy="35" r="4" fill="#D4A373" opacity="0.7"/>
    <path d="M 50 31 Q 48 27 50 23" stroke="#A3B18A" stroke-width="1.5" fill="none" stroke-linecap="round"/>
</svg>