<svg width="100" height="100" viewBox="0 0 100 100" fill="none" xmlns="http://www.w3.org/2000/svg">
    <ellipse cx="50" cy="75" rx="28" ry="8" fill="#3A3A3A"/>
    <path d="M 22 75 Q 22 55 32 45 L 32 30 Q 32 20 42 20 L 58 20 Q 68 20 68 30 L 68 45 Q 78 55 78 75" fill="#3A3A3A"/>
    <ellipse cx="50" cy="40" rx="18" ry="4" fill="#3A3A3A" opacity="0.9"/>
    <circle cx="45" cy="38" r="3" fill="#F7F7F2" opacity="0.3"/>
    <circle cx="50" cy="40" r="2" fill="#F7F7F2" opacity="0.3"/>
    <circle cx="55" cy="38" r="3" fill="#F7F7F2" opacity="0.3"/>
    <path d="M 42 30 Q 40 25 42 20" stroke="#A3B18A" stroke-width="2" fill="none" opacity="0.5" stroke-linecap="round"/>
    <path d="M 50 30 Q 52 25 50 20" stroke="#A3B18A" stroke-width="2" fill="none" opacity="0.5" stroke-linecap="round"/>
    <path d="M 58 30 Q 60 25 58 20" stroke="#A3B18A" stroke-width="2" fill="none" opacity="0.5" stroke-linecap="round"/>
</svg>