<svg width="100" height="100" viewBox="0 0 100 100" fill="none" xmlns="http://www.w3.org/2000/svg">
    <ellipse cx="50" cy="75" rx="28" ry="8" fill="#A3B18A"/>
    <path d="M 22 75 Q 22 55 32 45 L 32 35 Q 32 25 42 25 L 58 25 Q 68 25 68 35 L 68 45 Q 78 55 78 75" fill="#B08968"/>
    <ellipse cx="50" cy="40" rx="18" ry="4" fill="#D4A373" opacity="0.7"/>
    <circle cx="45" cy="38" r="2" fill="#3A3A3A" opacity="0.5"/>
    <circle cx="50" cy="36" r="1.5" fill="#3A3A3A" opacity="0.5"/>
    <circle cx="55" cy="38" r="2" fill="#3A3A3A" opacity="0.5"/>
    <path d="M 42 30 Q 40 25 42 20" stroke="#3A3A3A" stroke-width="1.5" fill="none" opacity="0.4" stroke-linecap="round"/>
    <path d="M 50 30 Q 52 25 50 20" stroke="#3A3A3A" stroke-width="1.5" fill="none" opacity="0.4" stroke-linecap="round"/>
    <path d="M 58 30 Q 60 25 58 20" stroke="#3A3A3A" stroke-width="1.5" fill="none" opacity="0.4" stroke-linecap="round"/>
</svg>