<svg width="100" height="100" viewBox="0 0 100 100" fill="none" xmlns="http://www.w3.org/2000/svg">
    <ellipse cx="50" cy="70" rx="25" ry="8" fill="#A3B18A"/>
    <path d="M 25 70 Q 25 65 30 60 L 30 45 Q 30 40 35 40 L 65 40 Q 70 40 70 45 L 70 60 Q 70 65 75 70" fill="#B08968"/>
    <path d="M 70 50 Q 80 50 85 55 Q 80 60 70 60" stroke="#A3B18A" stroke-width="3" fill="none" stroke-linecap="round"/>
    <ellipse cx="50" cy="50" rx="20" ry="5" fill="#D4A373" opacity="0.6"/>
    <path d="M 50 30 Q 45 25 50 20 Q 55 25 50 30" fill="#A3B18A" opacity="0.7"/>
    <circle cx="45" cy="35" r="2" fill="#D4A373" opacity="0.5"/>
    <circle cx="55" cy="35" r="2" fill="#D4A373" opacity="0.5"/>
    <path d="M 45 35 Q 43 30 45 25" stroke="#3A3A3A" stroke-width="1.5" fill="none" opacity="0.3" stroke-linecap="round"/>
    <path d="M 50 35 Q 52 30 50 25" stroke="#3A3A3A" stroke-width="1.5" fill="none" opacity="0.3" stroke-linecap="round"/>
    <path d="M 55 35 Q 57 30 55 25" stroke="#3A3A3A" stroke-width="1.5" fill="none" opacity="0.3" stroke-linecap="round"/>
</svg>