<svg width="100" height="100" viewBox="0 0 100 100" fill="none" xmlns="http://www.w3.org/2000/svg">
    <ellipse cx="50" cy="70" rx="25" ry="8" fill="#B08968"/>
    <path d="M 25 70 Q 25 60 30 50 L 30 30 Q 30 20 40 20 L 60 20 Q 70 20 70 30 L 70 50 Q 75 60 75 70" fill="#D4A373"/>
    <path d="M 30 30 Q 35 25 40 30 Q 45 25 50 30 Q 55 25 60 30 Q 65 25 70 30" stroke="#A3B18A" stroke-width="2" fill="none" opacity="0.6"/>
    <circle cx="40" cy="40" r="3" fill="#A3B18A" opacity="0.7"/>
    <circle cx="50" cy="38" r="2.5" fill="#A3B18A" opacity="0.7"/>
    <circle cx="60" cy="40" r="3" fill="#A3B18A" opacity="0.7"/>
    <circle cx="45" cy="45" r="2" fill="#A3B18A" opacity="0.7"/>
    <circle cx="55" cy="45" r="2" fill="#A3B18A" opacity="0.7"/>
</svg>